<svg width="40" height="32" viewBox="0 0 40 32" fill="none" xmlns="http://www.w3.org/2000/svg">
<path opacity="0.587821" d="M30.0004 8.88867C32.7615 8.88889 35.0001 11.2765 35.0004 14.2217C35.0004 17.1671 32.7616 19.5554 30.0004 19.5557C27.2389 19.5557 25.0004 17.1672 25.0004 14.2217C25.0006 11.2764 27.2391 8.88867 30.0004 8.88867ZM15.0004 0C18.6821 0.000187898 21.6664 3.18409 21.6664 7.11133C21.6663 11.0385 18.682 14.2225 15.0004 14.2227C11.3185 14.2227 8.33348 11.0386 8.33337 7.11133C8.33337 3.18397 11.3185 0 15.0004 0Z" fill="white"/>
<path d="M14.9727 17.7778C22.9523 17.778 29.5077 21.8547 29.9962 30.5776C30.0156 30.9251 29.9963 32.0005 28.7442 32.0005H1.21298C0.795072 32.0005 -0.0338072 31.0389 0.00106676 30.5767C0.647078 22.0919 7.1037 17.7778 14.9727 17.7778ZM29.336 21.3364C35.013 21.403 39.6482 24.4628 39.9972 30.9331C40.0112 31.1937 39.9971 32.0005 39.0929 32.0005H32.6661C32.6661 27.9996 31.4271 24.3072 29.336 21.3364Z" fill="white"/>
</svg>
